<svg width="800" height="600" xmlns="http://www.w3.org/2000/svg">
 <g>
  <title>Layer 1</title>
  <g stroke="null">
   <path stroke="null" class="abc" fill="#ffffff" d="m413,268.43576l71.8488,-14.92783c17.53125,-3.64258 30.1512,-19.63414 30.1512,-38.20759c0,-24.58814 -21.65333,-43.02967 -44.86343,-38.20746l-51.8874,10.78073c-17.87933,3.71477 -30.74918,20.02289 -30.74918,38.96416l0,106.96489c-7.50146,-4.50737 -16.21073,-7.08755 -25.5,-7.08755c-28.16654,0 -51,23.72097 -51,52.98111c0,29.26014 22.83347,52.98111 51,52.98111c28.16603,0 51,-23.72097 51,-52.98111l0,-111.26047zm62.1384,-65.36677l-51.88868,10.78073c-5.95935,1.2383 -10.24973,6.6743 -10.24973,12.98805l0,14.58292l66.84698,-13.88887c5.61255,-1.16611 9.65303,-6.28555 9.65303,-12.23148c0,-7.8714 -6.93218,-13.77509 -14.3616,-12.23135zm-87.6384,176.62724c0,-14.63073 -11.41673,-26.49056 -25.5,-26.49056c-14.08327,0 -25.5,11.85982 -25.5,26.49056c0,14.63073 11.41673,26.49056 25.5,26.49056c14.08327,0 25.5,-11.85982 25.5,-26.49056z" clip-rule="evenodd" fill-rule="evenodd"/>
  </g>
 </g>
</svg>